<svg width="1900" height="456" viewBox="0 0 1900 456" fill="none" xmlns="http://www.w3.org/2000/svg">
<path d="M1777.11 240.92V245.199C1757.43 245.199 1755.58 248.051 1755.58 260.481V384.568C1755.58 394.756 1757.63 396.793 1766.24 396.793H1797.2C1812.57 396.793 1816.88 392.515 1824.67 359.302L1830 360.525L1820.77 400.257L1819.95 403.925H1721.75V399.646C1741.23 399.646 1743.08 396.793 1743.08 384.364V260.481C1743.08 248.051 1741.23 245.199 1721.75 245.199V240.92H1777.11Z" fill="#FFFF00"/>
<path d="M1660.96 237.864L1708.11 385.383C1712.01 397.405 1715.7 399.646 1728.61 399.646V403.925H1678.59V399.646C1698.48 399.646 1698.07 397.201 1694.38 385.383L1683.1 349.318H1626.11L1614.63 385.383C1610.94 397.201 1610.53 399.646 1630.41 399.646V403.925H1587.36V399.646C1600.07 399.646 1603.56 397.405 1607.45 385.383L1654.4 237.864H1660.96ZM1654.2 260.073L1628.16 342.798H1681.05L1655.02 260.073H1654.2Z" fill="#FFFF00"/>
<path d="M1549.7 385.179L1588.45 259.666C1592.14 247.644 1592.76 245.199 1574.31 245.199L1575.54 240.92H1624.94L1623.71 245.199C1608.34 245.199 1604.65 247.644 1600.96 259.666L1562.21 385.179C1558.52 397.201 1557.91 399.646 1576.36 399.646L1574.92 403.925H1525.31L1526.74 399.646C1542.12 399.646 1546.01 397.201 1549.7 385.179Z" fill="#FFFF00"/>
<path d="M1496.05 340.557L1517.78 381.919C1524.55 394.348 1527.42 399.442 1543.2 399.442V403.925H1537.87C1515.94 403.925 1513.07 400.869 1504.46 383.753L1474.93 326.294H1471.24C1466.12 326.294 1461.61 325.886 1457.3 325.275V384.364C1457.3 396.793 1459.15 399.646 1478.62 399.646V403.925H1423.48V399.646C1442.95 399.646 1444.8 396.793 1444.8 384.364V260.481C1444.8 248.051 1442.95 245.199 1423.48 245.199V240.92H1477.6C1509.79 240.92 1525.37 256.405 1525.37 281.671C1525.37 307.548 1508.76 321.404 1484.98 325.275C1488.67 327.516 1491.54 331.388 1496.05 340.557ZM1457.3 255.59V318.144C1461.81 319.162 1466.73 319.57 1472.06 319.57C1495.85 319.57 1512.04 308.567 1512.04 283.098C1512.04 260.277 1498.92 247.848 1475.75 247.848C1470.83 247.848 1465.91 248.459 1461.2 249.885C1458.53 250.904 1457.3 252.942 1457.3 255.59Z" fill="#FFFF00"/>
<path d="M1409.75 240.92L1410.16 244.995L1413.85 279.634L1408.73 280.041C1405.65 251.108 1402.17 248.051 1387.2 248.051H1352.35C1346.61 248.051 1343.53 251.108 1343.53 256.609V315.495H1374.69C1386.99 315.495 1389.86 313.661 1389.86 292.267H1394.17V345.243H1389.86C1389.86 323.645 1386.99 321.811 1374.69 321.811H1343.53V385.179C1343.53 394.756 1345.17 396.793 1353.17 396.793H1387.2C1402.58 396.793 1407.09 392.515 1415.9 361.34L1421.23 362.766L1410.57 400.054L1409.55 403.925H1309.71V399.646C1329.18 399.646 1331.03 396.793 1331.03 384.364V260.481C1331.03 248.051 1329.18 245.199 1309.71 245.199V240.92H1409.75Z" fill="#FFFF00"/>
<path d="M1239.38 248.051H1222.98C1208.01 248.051 1204.53 251.108 1201.86 280.041L1196.74 279.634L1199.81 244.995L1200.22 240.92H1303.96L1304.37 244.995L1307.44 279.634L1302.32 280.041C1299.65 251.108 1295.96 248.051 1281 248.051H1264.8C1260.7 248.051 1258.45 250.293 1258.45 254.368V384.364C1258.45 396.793 1260.09 399.646 1279.77 399.646V403.925H1224.41V399.646C1244.1 399.646 1245.74 396.793 1245.74 384.364V254.368C1245.74 250.293 1243.48 248.051 1239.38 248.051Z" fill="#FFFF00"/>
<path d="M1153.36 237.864L1200.51 385.383C1204.41 397.405 1208.1 399.646 1221.01 399.646V403.925H1170.99V399.646C1190.88 399.646 1190.47 397.201 1186.78 385.383L1175.5 349.318H1118.51L1107.03 385.383C1103.34 397.201 1102.93 399.646 1122.81 399.646V403.925H1079.76V399.646C1092.47 399.646 1095.96 397.405 1099.85 385.383L1146.8 237.864H1153.36ZM1146.59 260.073L1120.56 342.798H1173.45L1147.41 260.073H1146.59Z" fill="#FFFF00"/>
<path d="M988.656 240.92L990.911 383.957H991.526L1073.94 240.92H1109L1107.77 245.199C1093.83 245.199 1090.34 247.848 1087.47 259.869L1056.72 384.976C1053.64 396.997 1053.64 399.646 1074.35 399.646L1072.92 403.925H1021.05L1022.48 399.646C1037.86 399.646 1041.34 396.997 1044.21 384.976L1076.2 252.738H1075.38L984.966 408H979.226L976.15 254.775H975.535L935.353 385.179C931.868 397.201 931.253 399.646 949.499 399.646L948.269 403.925H903.986L905.421 399.646C920.797 399.646 924.692 397.201 928.383 385.179L966.925 259.666C970.615 247.644 971.23 245.199 952.779 245.199L954.009 240.92H988.656Z" fill="#FFFF00"/>
<path d="M818.969 407.185C774.481 407.185 752.135 369.694 752.135 322.626C752.135 274.947 775.301 237.66 817.328 237.66C831.064 237.66 841.725 241.328 851.77 250.089C855.256 253.145 857.716 252.534 858.126 248.255L858.741 239.697H863.251L866.121 296.138H861.816C856.486 262.926 843.16 244.791 817.738 244.791C783.297 244.791 766.076 278.615 766.076 321.607C766.076 365.211 784.732 399.85 820.609 399.85C838.855 399.85 851.565 388.847 857.306 379.678V340.149C857.306 327.72 853.821 325.071 814.868 325.071V320.792H882.112V325.071C870.426 325.071 869.196 327.516 869.196 340.149V380.289C857.511 398.016 839.265 407.185 818.969 407.185Z" fill="#FFFF00"/>
<path d="M775.12 240.92L773.89 245.199C758.309 245.199 754.413 247.644 750.928 259.666L705.621 406.777H698.035L658.263 265.371L621.976 385.179C618.286 397.201 617.876 399.646 638.377 399.646L636.942 403.925H590.199L591.634 399.646C607.01 399.646 610.905 397.201 614.596 385.179L654.573 253.757C651.498 246.625 647.807 245.199 640.222 245.199L641.247 240.92H664.618L703.981 382.327H705.621L743.343 259.666C747.033 247.644 747.443 245.199 726.942 245.199L728.377 240.92H775.12Z" fill="#FFFF00"/>
<path d="M558.283 385.179L597.03 259.666C600.72 247.644 601.336 245.199 582.884 245.199L584.115 240.92H633.522L632.292 245.199C616.916 245.199 613.226 247.644 609.536 259.666L570.789 385.179C567.099 397.201 566.484 399.646 584.935 399.646L583.5 403.925H533.887L535.322 399.646C550.698 399.646 554.593 397.201 558.283 385.179Z" fill="#FFFF00"/>
<path d="M531.569 240.92L530.339 245.199C514.758 245.199 510.863 247.644 507.378 259.666L468.836 384.772C465.76 394.96 466.785 396.793 475.191 396.793H506.558C522.139 396.793 526.649 392.718 541.41 366.434L546.74 368.064L527.674 403.925H431.523L432.959 399.646C448.334 399.646 452.23 397.201 455.92 385.179L494.667 259.666C498.357 247.644 498.972 245.199 480.521 245.199L481.751 240.92H531.569Z" fill="#FFFF00"/>
<path d="M380.829 407.185C345.362 407.185 321.171 369.286 321.171 322.422C321.171 275.559 344.132 237.66 380.624 237.66C415.886 237.66 439.873 275.762 439.873 322.422C439.873 369.49 417.321 407.185 380.829 407.185ZM384.519 400.054C411.171 400.054 426.957 369.083 426.957 333.833C426.957 291.452 408.916 244.791 376.729 244.791C350.283 244.791 334.292 275.762 334.292 310.808C334.292 353.597 351.923 400.054 384.519 400.054Z" fill="#FFFF00"/>
<path d="M252.441 407.185C216.974 407.185 192.782 369.286 192.782 322.422C192.782 275.559 215.744 237.66 252.236 237.66C287.498 237.66 311.484 275.762 311.484 322.422C311.484 369.49 288.933 407.185 252.441 407.185ZM256.131 400.054C282.782 400.054 298.568 369.083 298.568 333.833C298.568 291.452 280.527 244.791 248.34 244.791C221.894 244.791 205.903 275.762 205.903 310.808C205.903 353.597 223.534 400.054 256.131 400.054Z" fill="#FFFF00"/>
<path d="M70 323.034C70 275.151 94.1914 237.66 131.913 237.66C144.214 237.66 154.875 241.124 163.69 250.089C166.97 253.145 169.431 252.33 169.841 248.255L170.661 239.697H174.966L178.041 296.138H173.736C168.201 263.129 156.105 244.791 133.144 244.791C101.777 244.791 83.9408 278.819 83.9408 321.811C83.9408 365.211 102.187 399.035 132.529 399.035C158.975 399.035 174.351 373.158 178.861 337.908H184.191C180.091 379.27 162.46 407.185 129.658 407.185C91.7312 407.185 70 369.694 70 323.034Z" fill="#FFFF00"/>
<path d="M1633.4 217.525C1604.7 217.525 1591.57 195.723 1591.57 166.586C1591.57 117.277 1628.68 48.4075 1676.45 48.4075C1689.57 48.4075 1697.36 53.0939 1703.51 61.8554C1705.97 65.523 1707.41 65.3193 1709.05 61.2441L1713.56 49.8338L1717.66 50.6488L1702.49 106.478H1698.18C1702.28 77.5446 1700.03 55.539 1676.65 55.539C1634.83 55.539 1605.31 124.409 1605.31 165.771C1605.31 191.648 1616.59 208.56 1637.5 208.56C1662.51 208.56 1681.78 185.332 1696.13 155.176H1701.46C1685.67 189.407 1666.81 217.525 1633.4 217.525Z" fill="#FFFF00"/>
<path d="M1543.15 195.519L1581.9 70.0057C1585.59 57.984 1586.2 55.539 1567.75 55.539L1568.98 51.2601H1618.39L1617.16 55.539C1601.78 55.539 1598.09 57.984 1594.4 70.0057L1555.66 195.519C1551.97 207.541 1551.35 209.986 1569.8 209.986L1568.37 214.265H1518.75L1520.19 209.986C1535.56 209.986 1539.46 207.541 1543.15 195.519Z" fill="#FFFF00"/>
<path d="M1401.78 214.265L1403.21 209.986C1418.59 209.986 1422.48 207.541 1426.17 195.519L1464.92 70.0057C1468.61 57.984 1469.22 55.539 1450.77 55.539L1452 51.2601H1496.08C1522.53 51.2601 1537.49 62.8742 1537.49 83.046C1537.49 111.776 1508.18 130.725 1472.3 129.095L1471.68 130.114C1480.7 131.336 1486.04 136.634 1489.93 149.267L1501.21 185.739C1506.95 205.096 1511.05 209.986 1528.27 209.986L1527.04 214.265H1517.81C1503.87 214.265 1495.88 211.412 1488.91 187.777L1477.22 148.859C1473.12 135.819 1466.76 132.355 1458.36 131.744L1438.88 195.519C1435.19 207.541 1434.78 209.986 1455.49 209.986L1453.85 214.265H1401.78ZM1478.86 65.1155L1461.02 123.186C1463.28 123.39 1465.53 123.39 1467.58 123.39C1499.98 123.186 1524.58 110.349 1524.58 83.046C1524.58 65.1155 1513.3 57.7803 1492.39 57.7803C1485.22 57.7803 1480.7 59.4103 1478.86 65.1155Z" fill="#FFFF00"/>
<path d="M1357.9 58.3916H1341.5C1326.53 58.3916 1323.04 61.4479 1320.38 90.3813L1315.25 89.9737L1318.33 55.3352L1318.74 51.2601H1422.47L1422.89 55.3352L1425.96 89.9737L1420.83 90.3813C1418.17 61.4479 1414.48 58.3916 1399.51 58.3916H1383.32C1379.22 58.3916 1376.96 60.6329 1376.96 64.708V194.704C1376.96 207.133 1378.6 209.986 1398.28 209.986V214.265H1342.93V209.986C1362.61 209.986 1364.25 207.133 1364.25 194.704V64.708C1364.25 60.6329 1362 58.3916 1357.9 58.3916Z" fill="#FFFF00"/>
<path d="M1314.7 51.2601V55.539C1295.02 55.539 1293.38 58.3916 1293.38 70.8207V217.118H1286.61L1201.94 79.5822V194.704C1201.94 207.133 1203.79 209.986 1223.67 209.986V214.265H1173.65V209.986C1193.12 209.986 1194.97 207.133 1194.97 194.704V68.3756L1194.76 67.9681C1188 57.169 1183.28 55.539 1173.65 55.539V51.2601H1199.48L1285.99 192.667H1286.2V70.8207C1286.2 58.3916 1284.56 55.539 1264.88 55.539V51.2601H1314.7Z" fill="#FFFF00"/>
<path d="M1159.92 51.2601L1160.33 55.3352L1164.02 89.9737L1158.9 90.3813C1155.82 61.4479 1152.34 58.3916 1137.37 58.3916H1102.52C1096.78 58.3916 1093.7 61.4479 1093.7 66.9493V125.835H1124.86C1137.16 125.835 1140.03 124.001 1140.03 102.607H1144.34V155.583H1140.03C1140.03 133.985 1137.16 132.151 1124.86 132.151H1093.7V195.519C1093.7 205.096 1095.34 207.133 1103.34 207.133H1137.37C1152.75 207.133 1157.26 202.855 1166.07 171.68L1171.4 173.106L1160.74 210.394L1159.72 214.265H1059.88V209.986C1079.35 209.986 1081.2 207.133 1081.2 194.704V70.8207C1081.2 58.3916 1079.35 55.539 1059.88 55.539V51.2601H1159.92Z" fill="#FFFF00"/>
<path d="M945.586 133.374C945.586 85.4911 969.777 48 1007.5 48C1019.8 48 1030.46 51.4639 1039.28 60.4291C1042.56 63.4855 1045.02 62.6704 1045.43 58.5953L1046.25 50.0376H1050.55L1053.63 106.478H1049.32C1043.79 73.4695 1031.69 55.1315 1008.73 55.1315C977.363 55.1315 959.527 89.1587 959.527 132.151C959.527 175.551 977.773 209.375 1008.11 209.375C1034.56 209.375 1049.94 183.498 1054.45 148.248H1059.78C1055.68 189.61 1038.05 217.525 1005.24 217.525C967.317 217.525 945.586 180.034 945.586 133.374Z" fill="#FFFF00"/>
<path d="M933.688 164.345H869.109V154.157H933.688V164.345Z" fill="#FFFF00"/>
<path d="M831.586 58.3916H815.185C800.219 58.3916 796.734 61.4479 794.069 90.3813L788.943 89.9737L792.019 55.3352L792.429 51.2601H896.164L896.574 55.3352L899.65 89.9737L894.524 90.3813C891.859 61.4479 888.169 58.3916 873.203 58.3916H857.007C852.907 58.3916 850.652 60.6329 850.652 64.708V194.704C850.652 207.133 852.292 209.986 871.973 209.986V214.265H816.62V209.986C836.301 209.986 837.941 207.133 837.941 194.704V64.708C837.941 60.6329 835.686 58.3916 831.586 58.3916Z" fill="#FFFF00"/>
<path d="M777.014 51.2601L777.424 55.3352L781.115 89.9737L775.989 90.3813C772.914 61.4479 769.429 58.3916 754.463 58.3916H719.611C713.871 58.3916 710.796 61.4479 710.796 66.9493V125.835H741.957C754.258 125.835 757.128 124.001 757.128 102.607H761.433V155.583H757.128C757.128 133.985 754.258 132.151 741.957 132.151H710.796V195.519C710.796 205.096 712.436 207.133 720.431 207.133H754.463C769.839 207.133 774.349 202.855 783.165 171.68L788.495 173.106L777.834 210.394L776.809 214.265H676.969V209.986C696.445 209.986 698.29 207.133 698.29 194.704V70.8207C698.29 58.3916 696.445 55.539 676.969 55.539V51.2601H777.014Z" fill="#FFFF00"/>
<path d="M676.614 51.2601V55.539C656.933 55.539 655.293 58.3916 655.293 70.8207V217.118H648.528L563.858 79.5822V194.704C563.858 207.133 565.703 209.986 585.589 209.986V214.265H535.566V209.986C555.043 209.986 556.888 207.133 556.888 194.704V68.3756L556.683 67.9681C549.917 57.169 545.202 55.539 535.566 55.539V51.2601H561.398L647.913 192.667H648.118V70.8207C648.118 58.3916 646.478 55.539 626.797 55.539V51.2601H676.614Z" fill="#FFFF00"/>
<path d="M474.773 48.2038L521.926 195.723C525.821 207.745 529.511 209.986 542.427 209.986V214.265H492.404V209.986C512.29 209.986 511.88 207.541 508.19 195.723L496.914 159.658H439.921L428.44 195.723C424.75 207.541 424.34 209.986 444.226 209.986V214.265H401.174V209.986C413.885 209.986 417.37 207.745 421.265 195.723L468.213 48.2038H474.773ZM468.008 70.4132L441.971 153.138H494.864L468.828 70.4132H468.008Z" fill="#FFFF00"/>
<path d="M389.114 51.2601L387.884 55.539C372.303 55.539 368.408 57.984 364.923 70.0057L326.38 195.112C323.305 205.3 324.33 207.133 332.736 207.133H364.103C379.683 207.133 384.194 203.058 398.955 176.774L404.285 178.404L385.219 214.265H289.068L290.503 209.986C305.879 209.986 309.775 207.541 313.465 195.519L352.212 70.0057C355.902 57.984 356.517 55.539 338.066 55.539L339.296 51.2601H389.114Z" fill="#FFFF00"/>
<path d="M197.049 214.265V209.986C216.525 209.986 218.37 207.133 218.37 194.704V70.8207C218.37 58.3916 216.525 55.539 197.049 55.539V51.2601H249.122C279.463 51.2601 301.81 65.523 301.81 96.2902C301.81 125.224 281.514 142.339 252.812 142.339C244.406 142.339 237.641 140.913 230.876 138.671V194.704C230.876 207.133 232.721 209.986 252.607 209.986V214.265H197.049ZM251.377 135.208C275.363 135.208 288.689 119.926 288.689 96.6977C288.689 70.2094 271.058 58.1878 248.917 58.1878C243.176 58.1878 239.076 59.0028 234.771 60.4291C232.106 61.4479 230.876 63.2817 230.876 65.9305V131.54C237.026 133.578 243.176 135.208 251.377 135.208Z" fill="#FFFF00"/>
</svg>
