<svg width="240" height="216" viewBox="0 0 240 216" fill="none" xmlns="http://www.w3.org/2000/svg">
<path d="M227.502 177.077H223.218V176H227.502V177.077ZM223.218 178.146H221.072V177.077H223.218V178.146ZM229.648 178.146H227.502V177.077H229.648V178.146ZM221.072 179.215H220.003V178.146H221.072V179.215ZM230.717 179.215H229.648V178.146H230.717V179.215ZM220.003 181.361H218.933V179.215H220.003V181.361ZM227.502 180.292H223.218V179.215H227.502V180.292ZM231.786 181.361H230.717V179.215H231.786V181.361ZM223.218 181.361H222.149V180.292H223.218V181.361ZM228.571 181.361H227.502V180.292H228.571V181.361ZM218.933 185.645H217.864V181.361H218.933V185.645ZM222.149 185.645H221.072V181.361H222.149V185.645ZM229.648 182.43H228.571V181.361H229.648V182.43ZM232.863 185.645H231.786V181.361H232.863V185.645ZM229.648 185.645H228.571V184.576H229.648V185.645ZM220.003 187.791H218.933V185.645H220.003V187.791ZM223.218 186.714H222.149V185.645H223.218V186.714ZM228.571 186.714H227.502V185.645H228.571V186.714ZM231.786 187.791H230.717V185.645H231.786V187.791ZM227.502 187.791H223.218V186.714H227.502V187.791ZM221.072 188.86H220.003V187.791H221.072V188.86ZM230.717 188.86H229.648V187.791H230.717V188.86ZM223.218 189.929H221.072V188.86H223.218V189.929ZM229.648 189.929H227.502V188.86H229.648V189.929ZM227.502 190.999H223.218V189.929H227.502V190.999Z" fill="#FFFF00"/>
<path d="M215.88 208.305H210.522V206.523H208.74V193.133H206.066V190.46H208.74V185.101H212.316V190.46H215.88V193.133H212.316V204.74H215.88V208.305Z" fill="#FFFF00"/>
<path d="M192.653 208.304H189.089V190.459H192.653V192.241H194.435V190.459H200.685V192.241H202.479V194.023H204.261V208.304H200.685V195.805H198.902V194.023H194.435V195.805H192.653V208.304Z" fill="#FFFF00"/>
<path d="M181.96 208.304H173.025V206.522H171.243V204.74H169.461V194.023H171.243V192.241H173.025V190.459H181.96V192.241H183.742V194.023H185.524V200.273H173.025V202.958H174.807V204.74H180.166V202.958H185.524V204.74H183.742V206.522H181.96V208.304ZM173.025 197.6H181.96V195.805H180.166V194.023H174.807V195.805H173.025V197.6Z" fill="#FFFF00"/>
<path d="M165.897 187.775H162.333V184.21H165.897V187.775ZM165.897 208.305H162.333V190.46H165.897V208.305Z" fill="#FFFF00"/>
<path d="M146.27 208.305H142.706V183.307H146.27V192.242H148.052V190.46H155.205V192.242H156.987V194.024H158.769V204.741H156.987V206.523H155.205V208.305H148.052V206.523H146.27V208.305ZM148.052 204.741H153.411V202.959H155.205V195.806H153.411V194.024H148.052V195.806H146.27V202.959H148.052V204.741Z" fill="#FFFF00"/>
<path d="M117.707 208.304H114.143V190.459H117.707V192.241H119.489V190.459H124.847V192.241H128.424V190.459H135.564V192.241H137.346V194.023H139.14V208.304H135.564V195.805H133.782V194.023H130.206V195.805H128.424V208.304H124.847V195.805H123.065V194.023H119.489V195.805H117.707V208.304Z" fill="#FFFF00"/>
<path d="M94.5153 208.305H90.9512V202.959H92.7332V197.6H94.5153V192.242H96.2974V186.883H98.0917V183.307H103.45V186.883H105.232V192.242H107.014V197.6H108.796V202.959H110.591V208.305H107.014V202.959H94.5153V208.305ZM96.2974 199.382H105.232V197.6H103.45V192.242H101.656V188.665H99.8737V192.242H98.0917V197.6H96.2974V199.382Z" fill="#FFFF00"/>
<path d="M82.0418 183.307H80.2598V181.525H82.0418V183.307ZM83.8239 186.884H82.0418V183.307H83.8239V186.884ZM85.606 192.242H83.8239V186.884H85.606V192.242ZM87.4003 204.741H85.606V192.242H87.4003V204.741ZM85.606 210.087H83.8239V204.741H85.606V210.087ZM83.8239 213.651H82.0418V210.087H83.8239V213.651ZM82.0418 215.446H80.2598V213.651H82.0418V215.446Z" fill="#FFFF00"/>
<path d="M64.196 208.305H60.6318V183.307H64.196V192.242H65.9781V190.46H73.1308V192.242H74.9128V194.024H76.6949V204.741H74.9128V206.523H73.1308V208.305H65.9781V206.523H64.196V208.305ZM65.9781 204.741H71.3365V202.959H73.1308V195.806H71.3365V194.024H65.9781V195.806H64.196V202.959H65.9781V204.741Z" fill="#FFFF00"/>
<path d="M51.6974 208.304H45.4479V206.522H43.6659V204.74H41.8838V190.459H45.4479V202.958H47.23V204.74H51.6974V202.958H53.4795V190.459H57.0558V208.304H53.4795V206.522H51.6974V208.304Z" fill="#FFFF00"/>
<path d="M34.7555 208.305H22.2565V206.523H20.4745V204.741H18.6924V201.164H22.2565V202.959H24.0386V204.741H32.9734V202.959H34.7555V199.382H32.9734V197.6H24.0386V195.806H20.4745V194.024H18.6924V186.883H20.4745V185.101H22.2565V183.307H34.7555V185.101H36.5375V186.883H38.3318V190.46H34.7555V188.665H32.9734V186.883H24.0386V188.665H22.2565V192.242H24.0386V194.024H32.9734V195.806H36.5375V197.6H38.3318V204.741H36.5375V206.523H34.7555V208.305Z" fill="#FFFF00"/>
<path d="M15.1405 183.307H13.3462V181.525H15.1405V183.307ZM13.3462 186.883H11.5641V183.307H13.3462V186.883ZM11.5641 192.242H9.78207V186.883H11.5641V192.242ZM9.78207 204.741H8V192.242H9.78207V204.741ZM11.5641 210.087H9.78207V204.741H11.5641V210.087ZM13.3462 213.651H11.5641V210.087H13.3462V213.651ZM15.1405 215.445H13.3462V213.651H15.1405V215.445Z" fill="#FFFF00"/>
<rect x="71.0514" y="1.05137" width="96.9176" height="157.897" stroke="#FFFF00" stroke-width="2.10275"/>
<path d="M121.163 33.6767H117.756V21.7293H121.163V33.6767ZM100.675 30.2698H97.2679V26.863H100.675V30.2698ZM141.651 30.2698H138.22V26.863H141.651V30.2698ZM104.082 33.6767H100.675V30.2698H104.082V33.6767ZM138.22 33.6767H134.814V30.2698H138.22V33.6767ZM107.512 37.0836H104.082V33.6767H107.512V37.0836ZM134.814 37.0836H131.407V33.6767H134.814V37.0836ZM124.57 60.9785H114.326V57.5716H110.919V54.1647H107.512V43.9207H110.919V40.5138H114.326V37.0836H124.57V40.5138H127.977V43.9207H131.407V54.1647H127.977V57.5716H124.57V60.9785ZM104.082 50.7578H93.861V47.3276H104.082V50.7578ZM145.058 50.7578H134.814V47.3276H145.058V50.7578ZM107.512 64.4087H104.082V60.9785H107.512V64.4087ZM134.814 64.4087H131.407V60.9785H134.814V64.4087ZM104.082 67.8156H100.675V64.4087H104.082V67.8156ZM121.163 76.3328H117.756V64.4087H121.163V76.3328ZM138.22 67.8156H134.814V64.4087H138.22V67.8156ZM100.675 71.2225H97.2679V67.8156H100.675V71.2225ZM141.651 71.2225H138.22V67.8156H141.651V71.2225Z" fill="#FFFF00"/>
<path d="M120.595 131.801H118.448V110.294H116.302V108.147H122.756V110.294H120.595V131.801ZM116.302 112.455H114.141V110.294H116.302V112.455ZM124.902 112.455H122.756V110.294H124.902V112.455ZM114.141 114.601H111.995V112.455H114.141V114.601ZM127.048 114.601H124.902V112.455H127.048V114.601ZM111.995 116.747H109.848V114.601H111.995V116.747ZM129.195 116.747H127.048V114.601H129.195V116.747ZM109.848 118.894H107.702V116.747H109.848V118.894ZM131.356 118.894H129.195V116.747H131.356V118.894Z" fill="#FFFF00"/>
<path d="M94.0859 136.87H144.934" stroke="#FFFF00" stroke-width="2.10275"/>
</svg>
